<svg width="218" height="218" viewBox="0 0 218 218" fill="none" xmlns="http://www.w3.org/2000/svg">
<g id="app-development 1">
<g id="Group">
<g id="Group_2">
<path id="Vector" d="M88.4119 24.8395H104.706C106.476 24.8395 107.912 23.4041 107.912 21.6336C107.912 19.8632 106.476 18.4277 104.706 18.4277H88.4119C86.6415 18.4277 85.2061 19.8632 85.2061 21.6336C85.2061 23.4041 86.6415 24.8395 88.4119 24.8395Z" fill="black"/>
<path id="Vector_2" d="M73.8787 197.43H102.943C104.713 197.43 106.149 195.994 106.149 194.224C106.149 192.453 104.713 191.018 102.943 191.018H73.8787C72.1083 191.018 70.6729 192.453 70.6729 194.224C70.6729 195.994 72.1083 197.43 73.8787 197.43Z" fill="black"/>
<path id="Vector_3" d="M32.5545 165.534C34.325 165.534 35.7604 164.098 35.7604 162.328V36.8678H141.061V53.3589C141.061 55.1294 142.497 56.5648 144.267 56.5648C146.038 56.5648 147.473 55.1294 147.473 53.3589C147.475 49.5019 147.468 65.1909 147.488 19.1712C147.488 12.1525 141.748 6.41187 134.704 6.41187H134.696H42.1174H42.1103C35.409 6.41187 29.3486 11.9239 29.3486 19.1806V162.328C29.3486 164.098 30.7841 165.534 32.5545 165.534ZM134.696 12.8236C138.083 12.8236 141.061 15.5966 141.061 19.1806V30.456H35.7625V19.1712C35.7625 15.6748 38.6263 12.8236 42.1174 12.8236H134.696Z" fill="black"/>
<path id="Vector_4" d="M108.195 87.1883C109.442 88.426 111.474 88.4333 112.729 87.1664L126.127 73.6431C127.365 72.3939 127.365 70.3809 126.127 69.1317L112.729 55.6085C111.483 54.3499 109.454 54.3436 108.195 55.5865C106.937 56.8326 106.927 58.8629 108.173 60.1198L119.336 71.3874L108.173 82.655C106.927 83.912 106.937 85.9423 108.195 87.1883Z" fill="black"/>
<path id="Vector_5" d="M68.625 55.5864C67.368 54.3372 65.3362 54.3466 64.0917 55.6083L50.6953 69.1316C49.457 70.3808 49.457 72.3938 50.6953 73.643L64.0917 87.1662C65.3369 88.4239 67.3655 88.435 68.625 87.1882C69.8836 85.9421 69.893 83.9119 68.6469 82.6549L57.4858 71.3873L68.6469 60.1198C69.893 58.8627 69.8836 56.8324 68.625 55.5864Z" fill="black"/>
<path id="Vector_6" d="M93.5791 46.5276L74.7618 93.8801C74.1075 95.5253 74.9121 97.3896 76.5573 98.0424C78.1935 98.6956 80.0629 97.9001 80.7196 96.2469L99.5369 48.8944C100.191 47.2492 99.3867 45.3848 97.7415 44.7321C96.09 44.0699 94.2319 44.8824 93.5791 46.5276Z" fill="black"/>
<path id="Vector_7" d="M144.282 105.922C134.889 105.922 127.259 113.552 127.259 122.946C127.259 132.427 134.99 139.969 144.282 139.969C153.534 139.969 161.273 132.443 161.273 122.946C161.273 113.552 153.643 105.922 144.282 105.922ZM147.488 133.044V120.83C147.488 119.067 146.045 117.624 144.282 117.624C142.487 117.624 141.076 119.067 141.076 120.83V133.076C136.78 131.73 133.671 127.69 133.671 122.946C133.671 117.111 138.415 112.334 144.282 112.334C150.117 112.334 154.861 117.111 154.861 122.946C154.861 127.69 151.752 131.698 147.488 133.044Z" fill="black"/>
<path id="Vector_8" d="M185.798 112.815L177.911 111.917C177.302 110.058 176.533 108.231 175.603 106.468L180.219 99.9275C181.149 98.6774 180.989 96.914 179.899 95.8241L170.698 86.6553C169.544 85.501 167.717 85.3729 166.434 86.3987L160.247 91.3679C158.484 90.4701 156.656 89.7328 154.765 89.1558L153.45 81.2374C153.194 79.6984 151.847 78.5764 150.277 78.5764H137.293C135.658 78.5764 134.279 79.7947 134.087 81.4297L133.221 89.3482C131.33 89.9573 129.534 90.7266 127.803 91.6244L121.231 86.9758C119.949 86.0781 118.218 86.2064 117.128 87.3284L107.959 96.4972C106.805 97.6515 106.709 99.4788 107.734 100.761L112.672 106.98C111.774 108.744 111.037 110.571 110.46 112.463L102.573 113.777C101.034 114.066 99.88 115.38 99.88 116.951V129.935C99.88 131.57 101.13 132.916 102.733 133.109L110.62 134.006C111.229 135.898 112.03 137.725 112.928 139.456L108.311 145.964C107.414 147.246 107.542 148.977 108.664 150.1L117.833 159.268C118.987 160.423 120.815 160.519 122.097 159.493L128.316 154.556C130.08 155.421 131.875 156.159 133.766 156.736L135.081 164.654C135.337 166.225 136.684 167.347 138.255 167.347H141.076V174.432H32.5565C30.7933 174.432 29.3506 175.875 29.3506 177.638C29.3506 178.135 29.3506 199.635 29.3506 198.829C29.3506 205.85 35.0892 211.588 42.1101 211.588H134.696C141.749 211.588 147.487 205.85 147.487 198.829C147.487 197.262 147.487 165.796 147.487 167.347H151.238C152.873 167.347 154.252 166.129 154.444 164.494L155.342 156.576C157.201 155.967 159.029 155.197 160.76 154.299L167.3 158.948C168.582 159.846 170.313 159.685 171.435 158.595L180.572 149.394C181.726 148.24 181.822 146.413 180.797 145.163L175.859 138.943C176.757 137.148 177.494 135.321 178.072 133.461L185.958 132.115C187.497 131.858 188.651 130.512 188.651 128.973V115.989C188.651 114.354 187.433 112.975 185.798 112.815ZM141.076 198.829C141.076 202.323 138.222 205.177 134.696 205.177H42.1102C38.6157 205.177 35.7624 202.323 35.7624 198.829C35.7624 198.141 35.7624 180.515 35.7624 180.844H141.076L141.076 198.829ZM182.239 126.248L174.994 127.466C173.712 127.691 172.718 128.62 172.397 129.903C171.756 132.595 170.698 135.192 169.287 137.661C168.614 138.783 168.71 140.225 169.544 141.251L174 146.894L168.806 152.151L162.78 147.855C161.754 147.118 160.343 147.086 159.253 147.759C156.913 149.202 154.348 150.292 151.623 150.965C150.309 151.286 149.347 152.408 149.187 153.722L148.385 160.936C145.684 160.936 143.65 160.936 140.947 160.936L139.729 153.658C139.537 152.408 138.575 151.382 137.325 151.093C134.632 150.42 132.035 149.362 129.631 147.952C128.477 147.278 127.034 147.375 126.008 148.208L120.334 152.696L115.108 147.471L119.34 141.54C120.021 140.574 120.143 139.149 119.468 137.949C118.025 135.609 116.903 133.012 116.198 130.255C115.878 128.973 114.787 128.011 113.473 127.883L106.292 127.049V119.676L113.537 118.458C114.82 118.233 115.845 117.271 116.134 116.021C116.775 113.296 117.833 110.699 119.276 108.327C119.949 107.173 119.885 105.73 119.051 104.672L114.531 98.9979L119.757 93.7723L125.752 98.0362C126.777 98.7734 128.188 98.8376 129.278 98.1643C131.618 96.7216 134.215 95.6317 136.972 94.9263C138.255 94.6058 139.184 93.5158 139.344 92.2014L140.146 84.9882H147.584L148.802 92.2335C149.026 93.5157 149.956 94.5416 151.206 94.8303C153.931 95.4715 156.528 96.5293 158.932 97.972C160.087 98.6453 161.529 98.549 162.555 97.7154L168.197 93.1952L173.423 98.4529L169.191 104.416C168.519 105.368 168.381 106.761 169.063 107.974C170.538 110.379 171.628 112.976 172.301 115.636C172.621 116.919 173.712 117.881 175.058 118.041L182.239 118.842L182.239 126.248Z" fill="black"/>
</g>
</g>
</g>
</svg>
